<?xml version="1.0" encoding="iso-8859-1"?>
<!-- Generator: Adobe Illustrator 19.0.0, SVG Export Plug-In . SVG Version: 6.00 Build 0)  -->
<svg version="1.1" id="popular_1_" xmlns="http://www.w3.org/2000/svg" xmlns:xlink="http://www.w3.org/1999/xlink" x="0px" y="0px"
	 viewBox="0 0 35.36 87.79" style="enable-background:new 0 0 35.36 87.79;" xml:space="preserve">
<polyline style="fill:#412F85;" points="0,4.73 4.73,4.73 4.73,0 "/>
<polygon id="XMLID_2_" style="fill:#231E5E;" points="30.63,0 30.63,87.79 30.56,87.79 18.63,74.87 4.73,87.7 4.73,0 "/>
<polyline style="fill:#412F85;" points="35.36,4.73 30.63,4.73 30.63,0 "/>
<g id="XMLID_1_">
	<g id="XMLID_149_">
		<path id="XMLID_165_" style="fill:#231E5E;" d="M13.935,12.745h10.909v4.304c0,0.827-0.157,1.532-0.472,2.115
			c-0.313,0.582-0.749,1.026-1.305,1.334c-0.556,0.307-1.196,0.461-1.921,0.461s-1.363-0.156-1.917-0.469s-0.985-0.765-1.294-1.355
			c-0.309-0.592-0.463-1.307-0.463-2.145v-2.743h1.849v2.37c0,0.444,0.076,0.811,0.231,1.101c0.154,0.289,0.369,0.506,0.645,0.649
			c0.274,0.144,0.592,0.216,0.95,0.216c0.363,0,0.68-0.072,0.951-0.216s0.482-0.361,0.634-0.652s0.227-0.66,0.227-1.108v-1.555
			h-9.023V12.745z"/>
		<path id="XMLID_162_" style="fill:#231E5E;" d="M13.776,25.976c0-0.828,0.176-1.542,0.53-2.145
			c0.354-0.602,0.847-1.066,1.481-1.393c0.634-0.327,1.37-0.49,2.208-0.49c0.845,0,1.584,0.163,2.218,0.49
			c0.634,0.326,1.128,0.791,1.481,1.393c0.354,0.603,0.529,1.316,0.529,2.145c0,0.827-0.176,1.542-0.529,2.144
			c-0.354,0.603-0.848,1.066-1.481,1.394c-0.634,0.326-1.373,0.489-2.218,0.489c-0.838,0-1.574-0.163-2.208-0.489
			c-0.634-0.327-1.127-0.791-1.481-1.394C13.952,27.518,13.776,26.803,13.776,25.976z M15.534,25.987
			c0,0.376,0.107,0.69,0.322,0.942s0.509,0.443,0.881,0.572c0.373,0.13,0.797,0.195,1.273,0.195c0.476,0,0.901-0.065,1.274-0.195
			c0.372-0.129,0.667-0.32,0.884-0.572c0.216-0.252,0.325-0.566,0.325-0.942c0-0.381-0.109-0.699-0.325-0.956
			c-0.217-0.258-0.512-0.451-0.884-0.581c-0.373-0.13-0.798-0.194-1.274-0.194c-0.476,0-0.9,0.064-1.273,0.194
			c-0.373,0.13-0.667,0.323-0.881,0.581C15.641,25.288,15.534,25.606,15.534,25.987z"/>
		<path id="XMLID_159_" style="fill:#231E5E;" d="M10.867,31.484h11.25v2.237h-1.374v0.102c0.221,0.1,0.445,0.244,0.674,0.434
			c0.229,0.19,0.421,0.438,0.575,0.746c0.154,0.307,0.231,0.689,0.231,1.147c0,0.597-0.155,1.147-0.466,1.651
			c-0.311,0.505-0.778,0.907-1.401,1.21c-0.623,0.302-1.403,0.452-2.341,0.452c-0.913,0-1.682-0.146-2.309-0.439
			c-0.626-0.293-1.101-0.69-1.422-1.193c-0.322-0.502-0.482-1.064-0.482-1.686c0-0.44,0.073-0.814,0.219-1.121
			c0.146-0.308,0.329-0.559,0.551-0.754c0.222-0.195,0.446-0.345,0.674-0.447v-0.069h-4.379V31.484z M18.026,33.706
			c-0.486,0-0.911,0.067-1.273,0.202s-0.644,0.33-0.844,0.586s-0.301,0.566-0.301,0.933c0,0.369,0.102,0.682,0.307,0.938
			c0.204,0.255,0.488,0.45,0.852,0.583c0.364,0.133,0.784,0.199,1.26,0.199c0.473,0,0.888-0.065,1.246-0.196
			c0.359-0.132,0.64-0.325,0.842-0.581c0.203-0.256,0.304-0.57,0.304-0.942c0-0.37-0.098-0.682-0.293-0.936
			s-0.472-0.448-0.831-0.583C18.935,33.773,18.513,33.706,18.026,33.706z"/>
		<path id="XMLID_157_" style="fill:#231E5E;" d="M17.419,46.217h4.698v2.27h-8.182v-2.179h1.486v-0.086
			c-0.479-0.185-0.865-0.49-1.156-0.918c-0.291-0.429-0.437-0.949-0.437-1.563c0-0.547,0.124-1.028,0.373-1.444
			c0.249-0.415,0.602-0.739,1.06-0.972c0.458-0.232,1.007-0.351,1.646-0.354h5.209v2.27h-4.805
			c-0.483,0.003-0.865,0.133-1.145,0.389c-0.281,0.256-0.421,0.599-0.421,1.028c0,0.273,0.063,0.529,0.189,0.767
			c0.126,0.238,0.313,0.431,0.562,0.578S17.053,46.221,17.419,46.217z"/>
		<path id="XMLID_155_" style="fill:#231E5E;" d="M24.845,52.567H13.935v-2.27h10.909V52.567z"/>
		<path id="XMLID_152_" style="fill:#231E5E;" d="M13.781,56.71c0-0.521,0.091-0.987,0.274-1.396
			c0.183-0.408,0.455-0.73,0.815-0.967c0.36-0.236,0.81-0.354,1.35-0.354c0.455,0,0.836,0.083,1.145,0.25
			c0.309,0.167,0.558,0.395,0.746,0.682c0.188,0.288,0.331,0.615,0.426,0.982c0.096,0.368,0.163,0.754,0.202,1.159
			c0.05,0.476,0.097,0.859,0.142,1.15c0.044,0.291,0.11,0.503,0.199,0.634c0.089,0.132,0.221,0.197,0.395,0.197h0.031
			c0.338,0,0.599-0.105,0.783-0.317c0.186-0.211,0.277-0.51,0.277-0.897c0-0.408-0.09-0.733-0.27-0.975
			c-0.179-0.241-0.403-0.401-0.674-0.479l0.171-2.099c0.497,0.106,0.928,0.316,1.292,0.629c0.363,0.313,0.645,0.716,0.842,1.212
			c0.197,0.495,0.295,1.069,0.295,1.723c0,0.455-0.053,0.891-0.16,1.308c-0.105,0.418-0.271,0.789-0.494,1.113
			c-0.225,0.325-0.512,0.582-0.861,0.77c-0.35,0.188-0.768,0.283-1.254,0.283h-5.519v-2.152h1.135v-0.064
			c-0.256-0.131-0.48-0.307-0.674-0.527c-0.194-0.22-0.345-0.484-0.453-0.793C13.835,57.472,13.781,57.116,13.781,56.71z
			 M15.347,57.361c0,0.334,0.066,0.628,0.2,0.884s0.313,0.456,0.541,0.603c0.228,0.146,0.485,0.218,0.772,0.218h0.868
			c-0.046-0.071-0.088-0.168-0.125-0.29s-0.071-0.26-0.101-0.413c-0.03-0.152-0.057-0.306-0.08-0.458s-0.043-0.291-0.061-0.415
			c-0.04-0.267-0.102-0.499-0.187-0.698c-0.085-0.199-0.2-0.354-0.344-0.463c-0.144-0.11-0.322-0.165-0.535-0.165
			c-0.309,0-0.544,0.112-0.706,0.338S15.347,57.012,15.347,57.361z"/>
		<path id="XMLID_150_" style="fill:#231E5E;" d="M13.935,63.081h8.182v2.2H20.69v0.085c0.508,0.149,0.892,0.399,1.152,0.751
			c0.262,0.352,0.392,0.757,0.392,1.215c0,0.113-0.007,0.236-0.021,0.367c-0.015,0.132-0.034,0.247-0.059,0.347h-2.014
			c0.031-0.106,0.061-0.254,0.085-0.442s0.037-0.36,0.037-0.517c0-0.334-0.071-0.631-0.216-0.893
			c-0.144-0.261-0.344-0.467-0.6-0.617c-0.256-0.151-0.55-0.227-0.884-0.227h-4.629V63.081z"/>
	</g>
	<g id="XMLID_131_">
		<path id="XMLID_147_" style="fill:#FFFFFF;" d="M13.935,12.745h10.909v4.304c0,0.827-0.157,1.532-0.472,2.115
			c-0.313,0.582-0.749,1.026-1.305,1.334c-0.556,0.307-1.196,0.461-1.921,0.461s-1.363-0.156-1.917-0.469s-0.985-0.765-1.294-1.355
			c-0.309-0.592-0.463-1.307-0.463-2.145v-2.743h1.849v2.37c0,0.444,0.076,0.811,0.231,1.101c0.154,0.289,0.369,0.506,0.645,0.649
			c0.274,0.144,0.592,0.216,0.95,0.216c0.363,0,0.68-0.072,0.951-0.216s0.482-0.361,0.634-0.652s0.227-0.66,0.227-1.108v-1.555
			h-9.023V12.745z"/>
		<path id="XMLID_144_" style="fill:#FFFFFF;" d="M13.776,25.976c0-0.828,0.176-1.542,0.53-2.145
			c0.354-0.602,0.847-1.066,1.481-1.393c0.634-0.327,1.37-0.49,2.208-0.49c0.845,0,1.584,0.163,2.218,0.49
			c0.634,0.326,1.128,0.791,1.481,1.393c0.354,0.603,0.529,1.316,0.529,2.145c0,0.827-0.176,1.542-0.529,2.144
			c-0.354,0.603-0.848,1.066-1.481,1.394c-0.634,0.326-1.373,0.489-2.218,0.489c-0.838,0-1.574-0.163-2.208-0.489
			c-0.634-0.327-1.127-0.791-1.481-1.394C13.952,27.518,13.776,26.803,13.776,25.976z M15.534,25.987
			c0,0.376,0.107,0.69,0.322,0.942s0.509,0.443,0.881,0.572c0.373,0.13,0.797,0.195,1.273,0.195c0.476,0,0.901-0.065,1.274-0.195
			c0.372-0.129,0.667-0.32,0.884-0.572c0.216-0.252,0.325-0.566,0.325-0.942c0-0.381-0.109-0.699-0.325-0.956
			c-0.217-0.258-0.512-0.451-0.884-0.581c-0.373-0.13-0.798-0.194-1.274-0.194c-0.476,0-0.9,0.064-1.273,0.194
			c-0.373,0.13-0.667,0.323-0.881,0.581C15.641,25.288,15.534,25.606,15.534,25.987z"/>
		<path id="XMLID_141_" style="fill:#FFFFFF;" d="M10.867,31.484h11.25v2.237h-1.374v0.102c0.221,0.1,0.445,0.244,0.674,0.434
			c0.229,0.19,0.421,0.438,0.575,0.746c0.154,0.307,0.231,0.689,0.231,1.147c0,0.597-0.155,1.147-0.466,1.651
			c-0.311,0.505-0.778,0.907-1.401,1.21c-0.623,0.302-1.403,0.452-2.341,0.452c-0.913,0-1.682-0.146-2.309-0.439
			c-0.626-0.293-1.101-0.69-1.422-1.193c-0.322-0.502-0.482-1.064-0.482-1.686c0-0.44,0.073-0.814,0.219-1.121
			c0.146-0.308,0.329-0.559,0.551-0.754c0.222-0.195,0.446-0.345,0.674-0.447v-0.069h-4.379V31.484z M18.026,33.706
			c-0.486,0-0.911,0.067-1.273,0.202s-0.644,0.33-0.844,0.586s-0.301,0.566-0.301,0.933c0,0.369,0.102,0.682,0.307,0.938
			c0.204,0.255,0.488,0.45,0.852,0.583c0.364,0.133,0.784,0.199,1.26,0.199c0.473,0,0.888-0.065,1.246-0.196
			c0.359-0.132,0.64-0.325,0.842-0.581c0.203-0.256,0.304-0.57,0.304-0.942c0-0.37-0.098-0.682-0.293-0.936
			s-0.472-0.448-0.831-0.583C18.935,33.773,18.513,33.706,18.026,33.706z"/>
		<path id="XMLID_139_" style="fill:#FFFFFF;" d="M17.419,46.217h4.698v2.27h-8.182v-2.179h1.486v-0.086
			c-0.479-0.185-0.865-0.49-1.156-0.918c-0.291-0.429-0.437-0.949-0.437-1.563c0-0.547,0.124-1.028,0.373-1.444
			c0.249-0.415,0.602-0.739,1.06-0.972c0.458-0.232,1.007-0.351,1.646-0.354h5.209v2.27h-4.805
			c-0.483,0.003-0.865,0.133-1.145,0.389c-0.281,0.256-0.421,0.599-0.421,1.028c0,0.273,0.063,0.529,0.189,0.767
			c0.126,0.238,0.313,0.431,0.562,0.578S17.053,46.221,17.419,46.217z"/>
		<path id="XMLID_137_" style="fill:#FFFFFF;" d="M24.845,52.567H13.935v-2.27h10.909V52.567z"/>
		<path id="XMLID_134_" style="fill:#FFFFFF;" d="M13.781,56.71c0-0.521,0.091-0.987,0.274-1.396
			c0.183-0.408,0.455-0.73,0.815-0.967c0.36-0.236,0.81-0.354,1.35-0.354c0.455,0,0.836,0.083,1.145,0.25
			c0.309,0.167,0.558,0.395,0.746,0.682c0.188,0.288,0.331,0.615,0.426,0.982c0.096,0.368,0.163,0.754,0.202,1.159
			c0.05,0.476,0.097,0.859,0.142,1.15c0.044,0.291,0.11,0.503,0.199,0.634c0.089,0.132,0.221,0.197,0.395,0.197h0.031
			c0.338,0,0.599-0.105,0.783-0.317c0.186-0.211,0.277-0.51,0.277-0.897c0-0.408-0.09-0.733-0.27-0.975
			c-0.179-0.241-0.403-0.401-0.674-0.479l0.171-2.099c0.497,0.106,0.928,0.316,1.292,0.629c0.363,0.313,0.645,0.716,0.842,1.212
			c0.197,0.495,0.295,1.069,0.295,1.723c0,0.455-0.053,0.891-0.16,1.308c-0.105,0.418-0.271,0.789-0.494,1.113
			c-0.225,0.325-0.512,0.582-0.861,0.77c-0.35,0.188-0.768,0.283-1.254,0.283h-5.519v-2.152h1.135v-0.064
			c-0.256-0.131-0.48-0.307-0.674-0.527c-0.194-0.22-0.345-0.484-0.453-0.793C13.835,57.472,13.781,57.116,13.781,56.71z
			 M15.347,57.361c0,0.334,0.066,0.628,0.2,0.884s0.313,0.456,0.541,0.603c0.228,0.146,0.485,0.218,0.772,0.218h0.868
			c-0.046-0.071-0.088-0.168-0.125-0.29s-0.071-0.26-0.101-0.413c-0.03-0.152-0.057-0.306-0.08-0.458s-0.043-0.291-0.061-0.415
			c-0.04-0.267-0.102-0.499-0.187-0.698c-0.085-0.199-0.2-0.354-0.344-0.463c-0.144-0.11-0.322-0.165-0.535-0.165
			c-0.309,0-0.544,0.112-0.706,0.338S15.347,57.012,15.347,57.361z"/>
		<path id="XMLID_132_" style="fill:#FFFFFF;" d="M13.935,63.081h8.182v2.2H20.69v0.085c0.508,0.149,0.892,0.399,1.152,0.751
			c0.262,0.352,0.392,0.757,0.392,1.215c0,0.113-0.007,0.236-0.021,0.367c-0.015,0.132-0.034,0.247-0.059,0.347h-2.014
			c0.031-0.106,0.061-0.254,0.085-0.442s0.037-0.36,0.037-0.517c0-0.334-0.071-0.631-0.216-0.893
			c-0.144-0.261-0.344-0.467-0.6-0.617c-0.256-0.151-0.55-0.227-0.884-0.227h-4.629V63.081z"/>
	</g>
</g>
<g id="XMLID_8_">
</g>
<g id="XMLID_21_">
</g>
<g id="XMLID_23_">
</g>
<g id="XMLID_24_">
</g>
<g id="XMLID_37_">
</g>
<g id="XMLID_38_">
</g>
</svg>
